<svg width="588" height="346" viewBox="0 0 588 346" fill="none" xmlns="http://www.w3.org/2000/svg">
<path d="M6 287.631C2.68629 287.631 0 284.944 0 281.631V104.359C0 101.045 2.68629 98.3587 6 98.3587H44.9666C48.2803 98.3587 50.9666 101.045 50.9666 104.359V281.631C50.9666 284.944 48.2803 287.631 44.9666 287.631H6ZM51.7953 171.787C51.0337 176.528 45.6078 179.404 41.6218 176.727L34.1089 171.682C32.2716 170.449 31.2535 168.3 31.5231 166.103C34.1699 144.545 40.7807 127.45 51.3556 114.817C62.5086 101.232 78.5897 94.44 99.5988 94.44C108.677 94.44 116.847 96.0075 124.109 99.1424C129.939 101.449 135.351 105.019 140.345 109.851C142.5 111.936 142.489 115.331 140.525 117.597L116.473 145.369C114.119 148.086 109.928 148.07 106.91 146.117C105.262 145.05 103.473 144.152 101.544 143.423C97.6535 141.856 93.1145 141.072 87.9271 141.072C77.0334 141.072 68.0851 144.599 61.0821 151.653C56.2687 156.501 53.1731 163.212 51.7953 171.787Z" fill="black"/>
<path d="M213.347 287.631C210.033 287.631 207.347 284.944 207.347 281.631V77.9816C207.347 62.8294 210.589 49.5059 217.073 38.0111C223.557 26.2551 232.765 16.9809 244.696 10.1886C256.627 3.39619 270.633 0 286.714 0C298.905 0 309.409 2.08996 318.228 6.26987C325.344 9.64257 331.868 14.0358 337.802 19.4495C340.195 21.6336 340.158 25.3497 337.888 27.6629L313.926 52.089C311.584 54.4765 307.774 54.4252 305.04 52.4988C303.531 51.4356 301.962 50.525 300.331 49.7672C296.96 48.1997 292.68 47.416 287.492 47.416C278.155 47.416 270.893 50.0284 265.705 55.2533C260.777 60.217 258.313 67.4012 258.313 76.806V281.631C258.313 284.944 255.627 287.631 252.313 287.631H213.347Z" fill="black"/>
<path d="M367.089 287.631C364.582 287.631 362.34 286.072 361.466 283.723L327.819 193.289C327.746 193.093 327.686 192.902 327.632 192.7C326.947 190.15 321.692 171.303 309.649 146.804C308.651 144.775 306.583 143.5 304.321 143.5C285.383 143.5 200.006 143.5 169.978 143.5C166.665 143.5 164 140.817 164 137.503C164 126.848 164 112.598 164 104.489C164 101.175 166.673 98.4993 169.987 98.4967C196.302 98.4753 282.964 98.3587 292.5 98.3587C305.379 98.3587 322.894 98.3587 333.781 98.3587C339.805 98.3587 345.142 102.212 347.049 107.926L387.374 228.743C388.563 232.304 385.97 236 382.218 236.094C378.331 236.192 375.536 232.387 376.792 228.708L419.892 102.421C420.721 99.9915 423.003 98.3587 425.57 98.3587H453.947C456.513 98.3587 458.796 99.9915 459.625 102.421L502.725 228.708C503.981 232.387 501.186 236.192 497.299 236.094C493.547 236 490.954 232.304 492.142 228.743L534.293 102.459C535.11 100.01 537.402 98.3587 539.984 98.3587H578.399C582.577 98.3587 585.476 102.522 584.026 106.441L518.436 283.713C517.565 286.067 515.32 287.631 512.809 287.631H484.232C481.707 287.631 479.453 286.05 478.592 283.676L435.015 163.513C433.821 160.223 436.258 156.747 439.758 156.747C443.258 156.747 445.695 160.223 444.502 163.513L400.925 283.676C400.064 286.05 397.809 287.631 395.284 287.631H367.089Z" fill="black"/>
<path d="M242.273 311.969H224.573C215.408 311.969 207.979 319.398 207.979 328.563C207.979 337.728 215.408 345.157 224.573 345.157H242.273C251.438 345.157 258.867 337.728 258.867 328.563C258.867 319.398 251.438 311.969 242.273 311.969Z" fill="black"/>
</svg>
