<svg width="179" height="346" viewBox="0 0 179 346" fill="none" xmlns="http://www.w3.org/2000/svg">
<rect x="46" y="312" width="50.8885" height="33.1882" rx="16.5941" fill="#FF4747"/>
<path d="M49.5745 287.631C46.2608 287.631 43.5745 284.944 43.5745 281.631V77.9816C43.5745 62.8294 46.8166 49.5059 53.3009 38.0111C59.7852 26.2551 68.9929 16.9809 80.924 10.1886C92.8551 3.39619 106.861 0 122.942 0C135.133 0 145.637 2.08996 154.456 6.26987C161.571 9.64257 168.096 14.0358 174.03 19.4495C176.423 21.6336 176.386 25.3497 174.116 27.6629L150.154 52.089C147.812 54.4765 144.002 54.4252 141.268 52.4988C139.759 51.4356 138.19 50.525 136.559 49.7672C133.187 48.1997 128.908 47.416 123.72 47.416C114.383 47.416 107.121 50.0284 101.933 55.2533C97.0051 60.217 94.541 67.4012 94.541 76.806V281.631C94.541 284.944 91.8547 287.631 88.541 287.631H49.5745ZM6 143.423C2.68629 143.423 0 140.737 0 137.423V104.359C0 101.045 2.64945 98.3587 5.96316 98.3587C24.5699 98.3587 82.8086 98.3587 124.567 98.3587C127.074 98.3587 129.306 99.9129 130.18 102.262C134.296 113.326 139.339 126.879 142.485 135.335C143.944 139.255 141.043 143.423 136.86 143.423H6Z" fill="white"/>
</svg>
