<svg width="575" height="328" viewBox="0 0 575 328" fill="none" xmlns="http://www.w3.org/2000/svg">
<path d="M188.238 282H234.238V328L188.238 282Z" fill="#0A0A0A"/>
<path d="M0.732178 260.838V89.7192H46.8036V260.838H0.732178Z" fill="#0A0A0A"/>
<path d="M46.8036 166.245L28.8674 154.199C30.9776 133.178 37.0735 116.645 47.1553 104.599C57.2371 92.3173 71.7737 86.1764 90.765 86.1764C98.9711 86.1764 106.357 87.5935 112.921 90.4278C119.486 93.0259 125.465 97.3954 130.858 103.536L102.019 136.839C99.44 134.005 96.2748 131.879 92.5234 130.462C89.0065 129.045 84.9035 128.336 80.2143 128.336C70.3669 128.336 62.278 131.525 55.9476 137.902C49.8516 144.043 46.8036 153.49 46.8036 166.245Z" fill="#0A0A0A"/>
<path d="M188.164 260.838V71.2965C188.164 57.5975 191.095 45.5518 196.956 35.1595C202.818 24.531 211.141 16.1463 221.926 10.0053C232.712 3.86441 245.372 0.793945 259.909 0.793945C270.929 0.793945 280.424 2.68346 288.396 6.46248C296.368 10.2415 303.519 15.4377 309.849 22.051L280.659 51.8108C278.08 49.2128 275.266 47.2052 272.218 45.788C269.17 44.3709 265.301 43.6623 260.612 43.6623C252.172 43.6623 245.607 46.0242 240.918 50.748C236.463 55.2356 234.236 61.7308 234.236 70.2336V260.838H188.164Z" fill="#0A0A0A"/>
<path d="M148.775 130.462V89.7192H308.514L323.67 130.462H148.775Z" fill="#0A0A0A"/>
<path d="M372.17 260.838L308.514 89.7192H354.937L396.436 214.073L382.369 214.427L424.923 89.7192H458.334L500.888 214.427L486.821 214.073L528.32 89.7192H574.743L511.439 260.838H478.029L435.122 142.508H448.135L405.229 260.838H372.17Z" fill="#0A0A0A"/>
</svg>
