<svg width="575" height="328" viewBox="0 0 575 328" fill="none" xmlns="http://www.w3.org/2000/svg">
<path d="M0.572266 260.838V89.7191H46.6437V260.838H0.572266Z" fill="white"/>
<path d="M46.6437 166.244L28.7075 154.199C30.8177 133.178 36.9136 116.645 46.9954 104.599C57.0772 92.3172 71.6138 86.1763 90.605 86.1763C98.8112 86.1763 106.197 87.5934 112.762 90.4277C119.326 93.0258 125.305 97.3953 130.698 103.536L101.859 136.839C99.2801 134.005 96.1149 131.879 92.3635 130.462C88.8466 129.045 84.7435 128.336 80.0543 128.336C70.207 128.336 62.1181 131.525 55.7877 137.902C49.6917 144.043 46.6437 153.49 46.6437 166.244Z" fill="white"/>
<path d="M188.004 260.838V71.2963C188.004 57.5974 190.935 45.5517 196.796 35.1594C202.658 24.5308 210.981 16.1461 221.766 10.0052C232.552 3.86429 245.212 0.793823 259.749 0.793823C270.769 0.793823 280.264 2.68333 288.236 6.46236C296.208 10.2414 303.359 15.4376 309.689 22.0509L280.499 51.8107C277.92 49.2126 275.106 47.205 272.058 45.7879C269.01 44.3708 265.142 43.6622 260.452 43.6622C252.012 43.6622 245.447 46.0241 240.758 50.7479C236.303 55.2355 234.076 61.7307 234.076 70.2335V260.838H188.004Z" fill="white"/>
<path d="M148.615 130.462V89.7191H308.354L323.51 130.462H148.615Z" fill="white"/>
<path d="M372.01 260.838L308.354 89.7191H354.777L396.276 214.073L382.209 214.427L424.763 89.7191H458.174L500.728 214.427L486.661 214.073L528.16 89.7191H574.583L511.279 260.838H477.869L434.962 142.507H447.975L405.069 260.838H372.01Z" fill="white"/>
<path d="M188.04 282H234.04V328L188.04 282Z" fill="white"/>
</svg>
